<svg width="20" height="20" viewBox="0 0 20 20" fill="none" xmlns="http://www.w3.org/2000/svg">
<path fill-rule="evenodd" clip-rule="evenodd" d="M7.81733 1.76689C7.64436 1.47227 7.26687 1.37113 6.96977 1.53981L4.08302 3.17883C3.9375 3.26144 3.8312 3.39896 3.78789 3.56059C3.74459 3.72222 3.76791 3.89446 3.85262 4.03876C4.80123 5.65453 3.58845 7.73602 1.66699 7.73602C1.32181 7.73602 1.04199 8.01584 1.04199 8.36102L1.04199 11.639C1.04199 11.9842 1.32181 12.264 1.66699 12.264C3.58797 12.264 4.80011 14.3451 3.85131 15.9612C3.76659 16.1055 3.74327 16.2778 3.78658 16.4394C3.82988 16.601 3.93619 16.7385 4.0817 16.8212L6.96845 18.4602C7.26555 18.6288 7.64304 18.5277 7.81601 18.2331C8.79522 16.5652 11.2068 16.5652 12.186 18.233C12.3589 18.5276 12.7364 18.6288 13.0335 18.4601L15.9203 16.8211C16.0658 16.7385 16.1721 16.6009 16.2154 16.4393C16.2587 16.2777 16.2354 16.1054 16.1507 15.9611C15.2017 14.3447 16.4132 12.264 18.3337 12.264C18.6788 12.264 18.9587 11.9842 18.9587 11.639L18.9587 8.36102C18.9587 8.01584 18.6788 7.73602 18.3337 7.73602C16.4127 7.73602 15.2005 5.65495 16.1493 4.03884C16.2341 3.89454 16.2574 3.7223 16.2141 3.56067C16.1708 3.39904 16.0645 3.26152 15.919 3.1789L13.0322 1.53989C12.7351 1.37121 12.3576 1.47235 12.1846 1.76697C11.206 3.43381 8.79595 3.43379 7.81733 1.76689ZM10.0003 12.9166C11.6112 12.9166 12.917 11.6107 12.917 9.99989C12.917 8.38906 11.6112 7.08322 10.0003 7.08322C8.3895 7.08322 7.08366 8.38906 7.08366 9.99989C7.08366 11.6107 8.3895 12.9166 10.0003 12.9166Z" fill="currentColor"/>
</svg>
