<svg width="302" height="254" viewBox="0 0 302 254" fill="none" xmlns="http://www.w3.org/2000/svg">
<circle cx="143" cy="132" r="119" fill="#F4F5F6"/>
<path d="M60.5 61.5C60.5 54.8726 65.8726 49.5 72.5 49.5H213.5C220.127 49.5 225.5 54.8726 225.5 61.5V115.5H60.5V61.5Z" fill="#4B5563"/>
<path d="M78.5 70.5C78.5 68.8431 79.8431 67.5 81.5 67.5H147.5C149.157 67.5 150.5 68.8431 150.5 70.5C150.5 72.1569 149.157 73.5 147.5 73.5H81.5C79.8431 73.5 78.5 72.1569 78.5 70.5Z" fill="white"/>
<path d="M78.5 82.5C78.5 80.8431 79.8431 79.5 81.5 79.5H117.5C119.157 79.5 120.5 80.8431 120.5 82.5C120.5 84.1569 119.157 85.5 117.5 85.5H81.5C79.8431 85.5 78.5 84.1569 78.5 82.5Z" fill="white"/>
<path d="M78.5 94.5C78.5 92.8431 79.8431 91.5 81.5 91.5H102.5C104.157 91.5 105.5 92.8431 105.5 94.5C105.5 96.1569 104.157 97.5 102.5 97.5H81.5C79.8431 97.5 78.5 96.1569 78.5 94.5Z" fill="#E74C3C"/>
<path d="M60.5 115.5H225.5V202.5C225.5 209.127 220.127 214.5 213.5 214.5H72.5C65.8726 214.5 60.5 209.127 60.5 202.5V115.5Z" fill="white"/>
<path d="M116 150C116 147.515 118.015 145.5 120.5 145.5C122.985 145.5 125 147.515 125 150C125 152.485 122.985 154.5 120.5 154.5C118.015 154.5 116 152.485 116 150Z" fill="#ABB1BB"/>
<path d="M161 150C161 147.515 163.015 145.5 165.5 145.5C167.985 145.5 170 147.515 170 150C170 152.485 167.985 154.5 165.5 154.5C163.015 154.5 161 152.485 161 150Z" fill="#ABB1BB"/>
<path d="M131 180C131 177.515 133.015 175.5 135.5 175.5H150.5C152.985 175.5 155 177.515 155 180C155 182.485 152.985 184.5 150.5 184.5H135.5C133.015 184.5 131 182.485 131 180Z" fill="#ABB1BB"/>
<path d="M15 131L10 136M10 136L5 141M10 136L15 141M10 136L5 131" stroke="#FADBE1" stroke-width="3" stroke-linecap="round"/>
<path d="M297 168L293 172M293 172L289 176M293 172L297 176M293 172L289 168" stroke="#111827" stroke-width="3" stroke-linecap="round"/>
<path d="M56 42L68 30" stroke="#ABB1BB" stroke-width="3" stroke-linecap="round"/>
<path d="M246.5 133.5L258.5 145.5" stroke="#710E21" stroke-width="3" stroke-linecap="round"/>
<path d="M227 37.069V3M247 41L271 17.4138M249 60H283" stroke="#1477A9" stroke-width="3" stroke-linecap="round"/>
<circle cx="36.5" cy="82.5" r="4.5" stroke="#111827" stroke-width="3" stroke-linecap="round"/>
<circle cx="36.5" cy="199.5" r="4.5" stroke="#111827" stroke-width="3" stroke-linecap="round"/>
<circle cx="261" cy="225" r="6" stroke="#ABB1BB" stroke-width="3" stroke-linecap="round"/>
</svg>
