<svg width="267" height="200" viewBox="0 0 267 200" fill="none" xmlns="http://www.w3.org/2000/svg">
<path d="M126.322 82.7241L72.3889 126.496V139.744H190.338V126.496L136.405 82.7241C133.467 80.3397 129.26 80.3396 126.322 82.7241Z" fill="#FBA8A0"/>
<rect x="79.2159" y="102.865" width="83.7607" height="83.7607" rx="7" transform="rotate(-15 79.2159 102.865)" fill="#FFE0D9"/>
<rect x="88.6284" y="90.5986" width="83.7607" height="83.7607" rx="7" fill="white" stroke="#FFBFB9" stroke-width="2"/>
<path d="M72.3892 193V126.496L131.364 166.667L190.338 126.496V193C190.338 196.866 187.204 200 183.338 200H79.3892C75.5232 200 72.3892 196.866 72.3892 193Z" fill="#FFC9BD"/>
<path d="M125.747 158.33L77.5173 200H185.21L136.16 158.289C133.154 155.733 128.733 155.75 125.747 158.33Z" fill="#FBA8A0"/>
<rect x="115.449" y="105.983" width="40" height="5" fill="#FFC9BD"/>
<rect x="101.449" y="114.983" width="68" height="5" fill="#FFC9BD"/>
<rect x="113.415" y="124.787" width="34.188" height="11.9658" rx="2" fill="#FBA8A0"/>
<path d="M119.16 32.4785C119.753 28.3707 119.604 19.2009 114.269 15.3845" stroke="#E9EFF9" stroke-width="3" stroke-linecap="round"/>
<path d="M52.7305 62.3931L39.91 51.282" stroke="#FBA8A0" stroke-width="3" stroke-linecap="round"/>
<path d="M182.645 45.2991L195.466 34.188" stroke="#FBA8A0" stroke-width="3" stroke-linecap="round"/>
<path d="M220.252 95.7264L229.654 92.3076" stroke="#E9EFF9" stroke-width="3" stroke-linecap="round"/>
<circle cx="17.6878" cy="51.2821" r="3.4188" fill="#E9EFF9"/>
<circle cx="4.01255" cy="79.4872" r="3.4188" fill="#FBA8A0"/>
<circle cx="87.7733" cy="53.8461" r="3.4188" fill="#E9EFF9"/>
<circle cx="17.6878" cy="17.0941" r="3.4188" fill="#FBA8A0"/>
<circle cx="62.9869" cy="19.6582" r="4.48291" stroke="#FBA8A0" stroke-width="3"/>
<circle cx="260.423" cy="73.5044" r="4.48291" stroke="#FBA8A0" stroke-width="3"/>
<circle cx="88.6279" cy="6.8375" r="3.4188" fill="#FBA8A0"/>
<circle cx="157.859" cy="29.0599" r="3.4188" fill="#E9EFF9"/>
<circle cx="179.226" cy="10.2564" r="3.4188" fill="#E9EFF9"/>
<circle cx="245.893" cy="41.8802" r="3.4188" fill="#FBA8A0"/>
<circle cx="240.765" cy="103.419" r="1.7094" fill="#FBA8A0"/>
<circle cx="198.884" cy="76.0685" r="3.4188" fill="#FBA8A0"/>
<path d="M149.394 0.172634C150.634 -0.365891 152.065 0.414353 152.191 1.69734L152.336 3.17033C152.376 3.57881 152.557 3.96348 152.852 4.26493L153.915 5.352C154.84 6.29884 154.497 7.82523 153.243 8.33477L151.804 8.91977C151.405 9.082 151.073 9.36375 150.861 9.72152L150.094 11.0116C149.426 12.1354 147.782 12.2985 146.882 11.3304L145.848 10.219C145.561 9.91074 145.175 9.7002 144.749 9.61986L143.212 9.33013C141.874 9.07778 141.201 7.6522 141.898 6.54436L142.698 5.27245C142.92 4.91973 143.013 4.50787 142.962 4.10044L142.779 2.63125C142.62 1.35159 143.848 0.307415 145.18 0.590802L146.708 0.91616C147.132 1.00639 147.576 0.962373 147.97 0.790915L149.394 0.172634Z" fill="#FFC9BD"/>
<path d="M47.6846 89.9163C48.9244 89.3778 50.3559 90.158 50.4818 91.441L50.6264 92.914C50.6665 93.3225 50.8479 93.7071 51.1426 94.0086L52.2053 95.0957C53.131 96.0425 52.7873 97.5689 51.5338 98.0784L50.0946 98.6634C49.6955 98.8257 49.3641 99.1074 49.1514 99.4652L48.3848 100.755C47.717 101.879 46.0731 102.042 45.1725 101.074L44.1384 99.9626C43.8516 99.6544 43.4654 99.4439 43.0393 99.3635L41.5027 99.0738C40.1644 98.8214 39.4921 97.3959 40.189 96.288L40.9891 95.0161C41.2109 94.6634 41.3037 94.2515 41.2529 93.8441L41.07 92.3749C40.9106 91.0952 42.139 90.0511 43.4703 90.3345L44.9989 90.6598C45.4228 90.75 45.8663 90.706 46.2611 90.5346L47.6846 89.9163Z" fill="#E9EFF9"/>
<path d="M221.189 54.0188C222.429 53.4803 223.86 54.2605 223.986 55.5435L224.131 57.0165C224.171 57.425 224.352 57.8097 224.647 58.1111L225.71 59.1982C226.635 60.145 226.292 61.6714 225.038 62.181L223.599 62.766C223.2 62.9282 222.868 63.2099 222.656 63.5677L221.889 64.8578C221.221 65.9815 219.577 66.1447 218.677 65.1766L217.643 64.0651C217.356 63.7569 216.97 63.5464 216.544 63.466L215.007 63.1763C213.669 62.924 212.996 61.4984 213.693 60.3906L214.493 59.1186C214.715 58.7659 214.808 58.3541 214.757 57.9466L214.574 56.4774C214.415 55.1978 215.643 54.1536 216.975 54.437L218.503 54.7624C218.927 54.8526 219.371 54.8086 219.765 54.6371L221.189 54.0188Z" fill="#E9EFF9"/>
</svg>
