<svg width="18" height="16" viewBox="0 0 18 16" fill="none" xmlns="http://www.w3.org/2000/svg">
<path d="M5.45866 4.25001C5.45866 2.294 7.04432 0.708344 9.00033 0.708344C10.9563 0.708344 12.542 2.294 12.542 4.25001C12.542 6.20602 10.9563 7.79168 9.00033 7.79168C7.04432 7.79168 5.45866 6.20602 5.45866 4.25001Z" fill="#6B7280"/>
<path d="M2.54199 14.6667C2.54199 11.4732 5.52735 9.04168 9.00033 9.04168C12.4733 9.04168 15.4587 11.4732 15.4587 14.6667V15.2917H2.54199V14.6667Z" fill="#6B7280"/>
<path d="M5.02627 1.96509C4.6387 2.63771 4.41699 3.41797 4.41699 4.25001C4.41699 5.4101 4.84799 6.46953 5.55861 7.2769C5.32787 7.34084 5.08476 7.37501 4.83367 7.37501C3.33791 7.37501 2.12531 6.16246 2.12531 4.66668C2.12531 3.17089 3.33791 1.95834 4.83367 1.95834C4.89843 1.95834 4.96265 1.96062 5.02627 1.96509Z" fill="#6B7280"/>
<path d="M6.32199 8.44399C3.92648 9.26065 2.01176 11.1469 1.58796 13.625H0.0419922V13C0.0419922 10.3536 2.18729 8.20834 4.83366 8.20834C5.35323 8.20834 5.85349 8.29104 6.32199 8.44399Z" fill="#6B7280"/>
<path d="M16.4127 13.625H17.9587V13C17.9587 10.3536 15.8134 8.20834 13.167 8.20834C12.6475 8.20834 12.1472 8.29104 11.6787 8.44399C14.0742 9.26065 15.9889 11.1469 16.4127 13.625Z" fill="#6B7280"/>
<path d="M12.4421 7.27689C12.6728 7.34084 12.916 7.37501 13.1671 7.37501C14.6628 7.37501 15.8754 6.16245 15.8754 4.66668C15.8754 3.17091 14.6628 1.95834 13.1671 1.95834C13.1023 1.95834 13.0381 1.96062 12.9744 1.96509C13.362 2.63771 13.5837 3.41797 13.5837 4.25001C13.5837 5.4101 13.1527 6.46952 12.4421 7.27689Z" fill="currentColor"/>
</svg>
