<svg width="20" height="20" viewBox="0 0 20 20" fill="none" xmlns="http://www.w3.org/2000/svg">
<path d="M4.58301 5.58824C4.58301 3.53052 6.26893 1.875 8.33301 1.875C10.3971 1.875 12.083 3.53052 12.083 5.58824C12.083 7.64595 10.3971 9.30147 8.33301 9.30147C6.26893 9.30147 4.58301 7.64595 4.58301 5.58824Z" fill="#6B7280"/>
<path d="M1.45801 17.5C1.45801 13.7367 4.54304 10.6985 8.33301 10.6985C12.123 10.6985 15.208 13.7367 15.208 17.5V18.125H1.45801V17.5Z" fill="#6B7280"/>
<path fill-rule="evenodd" clip-rule="evenodd" d="M18.541 5.00001L13.541 5.00001V3.33334L18.541 3.33334V5.00001ZM18.541 7.50001L13.541 7.50001V5.83334L18.541 5.83334V7.50001ZM18.541 10H16.041V8.33334H18.541V10Z" fill="currentColor"/>
</svg>
