<svg width="125" height="22" viewBox="0 0 125 22" fill="none" xmlns="http://www.w3.org/2000/svg">
<rect x="0.5" y="0.5" width="26" height="21" rx="4.5" fill="white"/>
<path fill-rule="evenodd" clip-rule="evenodd" d="M8.45854 14.3402H6.74209L5.45496 9.28531C5.39387 9.05279 5.26415 8.84722 5.07334 8.75034C4.59716 8.50686 4.07243 8.31309 3.5 8.21536V8.02075H6.26507C6.64669 8.02075 6.9329 8.31309 6.9806 8.65261L7.64844 12.2989L9.36405 8.02075H11.0328L8.45854 14.3402ZM11.9863 14.3402H10.3652L11.7001 8.02075H13.3211L11.9863 14.3402ZM15.4186 9.77143C15.4663 9.43106 15.7525 9.23645 16.0864 9.23645C16.6112 9.18759 17.1828 9.28532 17.6598 9.52795L17.946 8.16734C17.469 7.97273 16.9442 7.875 16.4681 7.875C14.8947 7.875 13.7499 8.75034 13.7499 9.9652C13.7499 10.8894 14.5608 11.3747 15.1332 11.667C15.7525 11.9585 15.991 12.1531 15.9433 12.4446C15.9433 12.8819 15.4663 13.0765 14.9901 13.0765C14.4177 13.0765 13.8453 12.9307 13.3214 12.6873L13.0352 14.0487C13.6076 14.2913 14.2269 14.3891 14.7993 14.3891C16.5635 14.4371 17.6598 13.5626 17.6598 12.25C17.6598 10.5971 15.4186 10.5002 15.4186 9.77143ZM23.3342 14.3402L22.0471 8.02075H20.6646C20.3783 8.02075 20.0921 8.21537 19.9967 8.50686L17.6133 14.3402H19.282L19.6151 13.4169H21.6655L21.8563 14.3402H23.3342ZM20.9016 9.72266L21.3778 12.1044H20.043L20.9016 9.72266Z" fill="#172B85"/>
<rect x="0.5" y="0.5" width="26" height="21" rx="4.5" stroke="#EEEEEE"/>
<rect x="33.5" y="0.5" width="26" height="21" rx="4.5" fill="white"/>
<path fill-rule="evenodd" clip-rule="evenodd" d="M46.4406 15.208C45.4539 16.0397 44.1741 16.5417 42.7756 16.5417C39.6548 16.5417 37.125 14.0419 37.125 10.9583C37.125 7.87474 39.6548 5.375 42.7756 5.375C44.1741 5.375 45.4539 5.87701 46.4406 6.70862C47.4273 5.87701 48.7071 5.375 50.1057 5.375C53.2264 5.375 55.7562 7.87474 55.7562 10.9583C55.7562 14.0419 53.2264 16.5417 50.1057 16.5417C48.7071 16.5417 47.4273 16.0397 46.4406 15.208Z" fill="#ED0006"/>
<path fill-rule="evenodd" clip-rule="evenodd" d="M46.4414 15.2072C47.6559 14.1831 48.426 12.6596 48.426 10.9583C48.426 9.25707 47.6559 7.73352 46.4414 6.70944C47.4282 5.87735 48.7084 5.375 50.1074 5.375C53.2281 5.375 55.758 7.87474 55.758 10.9583C55.758 14.0419 53.2281 16.5417 50.1074 16.5417C48.7084 16.5417 47.4282 16.0393 46.4414 15.2072Z" fill="#F9A000"/>
<path fill-rule="evenodd" clip-rule="evenodd" d="M46.4407 15.2082C45.2256 14.1841 44.4551 12.6602 44.4551 10.9584C44.4551 9.25672 45.2255 7.73283 46.4406 6.70874C47.6557 7.73283 48.4261 9.25675 48.4261 10.9585C48.4261 12.6602 47.6557 14.1841 46.4407 15.2082Z" fill="#FF5E00"/>
<rect x="33.5" y="0.5" width="26" height="21" rx="4.5" stroke="#EEEEEE"/>
<rect x="66.5" y="0.5" width="26" height="21" rx="4.5" fill="white"/>
<path d="M83.1873 11.1629C83.5897 11.1717 83.9945 11.1451 84.3953 11.1767C84.8012 11.2524 84.8991 11.867 84.5384 12.0682C84.2924 12.2008 84 12.1176 83.7333 12.141H83.1873V11.1629ZM84.628 10.0559C84.7174 10.3715 84.4132 10.6548 84.1092 10.6114H83.1873C83.1937 10.3137 83.1746 9.99069 83.1966 9.70873C83.566 9.71914 83.9387 9.68752 84.3059 9.72527C84.4637 9.76491 84.5957 9.89461 84.628 10.0559ZM86.8468 5.37551C86.8639 5.97824 86.8493 6.61282 86.8542 7.22777C86.853 9.72795 86.8566 12.2281 86.8522 14.7284C86.836 15.6654 86.0056 16.4796 85.0751 16.4983C84.1437 16.502 83.2121 16.4988 82.2806 16.4999V12.7201C83.2955 12.7149 84.311 12.7308 85.3256 12.7122C85.7962 12.6827 86.3118 12.3721 86.3337 11.8542C86.3891 11.334 85.8987 10.9742 85.433 10.9174C85.254 10.9127 85.2593 10.8652 85.433 10.8445C85.8771 10.7485 86.2259 10.2889 86.0952 9.82855C85.9839 9.3444 85.4487 9.15701 85.0036 9.15794C84.0961 9.15178 83.1884 9.15708 82.2808 9.15529C82.2866 8.44966 82.2686 7.74327 82.2905 7.03815C82.3624 6.11806 83.2138 5.35929 84.1312 5.37575C85.0365 5.37561 85.9417 5.37561 86.8468 5.37558V5.37551Z" fill="url(#paint0_linear_1_3404)"/>
<path d="M72.0241 7.13353C72.0473 6.19801 72.8813 5.3905 73.8106 5.37683C74.7386 5.37397 75.6667 5.37642 76.5947 5.37559C76.5921 8.50563 76.5997 11.636 76.5908 14.7659C76.5551 15.69 75.7302 16.4822 74.811 16.4985C73.8813 16.5019 72.9515 16.499 72.0217 16.4999V12.5928C72.9248 12.8061 73.8719 12.8969 74.7932 12.7554C75.3439 12.6668 75.9465 12.3963 76.1329 11.825C76.2701 11.3363 76.1929 10.8219 76.2133 10.3203V9.15537H74.6189C74.6117 9.92582 74.6335 10.6976 74.6073 11.4671C74.5643 11.9401 74.0959 12.2406 73.6498 12.2246C73.0966 12.2305 72.0003 11.8237 72.0003 11.8237C71.9975 10.3801 72.0163 8.57238 72.0241 7.13366V7.13353Z" fill="url(#paint1_linear_1_3404)"/>
<path d="M77.1901 9.62502C77.1062 9.64283 77.1732 9.33914 77.1518 9.22394C77.1575 8.49554 77.1398 7.76635 77.1615 7.03847C77.2332 6.11449 78.0911 5.35382 79.0122 5.37545H81.7249C81.7224 8.50549 81.7299 11.6359 81.7211 14.7658C81.6853 15.6899 80.8604 16.482 79.9412 16.4984C79.0114 16.5019 78.0815 16.4989 77.1517 16.4998V12.219C77.7867 12.74 78.6498 12.8211 79.441 12.8225C80.0374 12.8223 80.6303 12.7304 81.2095 12.5928V11.8086C80.5568 12.1339 79.7895 12.3405 79.0659 12.1536C78.5612 12.028 78.1948 11.5402 78.2029 11.0193C78.1445 10.4776 78.462 9.90567 78.9943 9.74463C79.6553 9.53772 80.3756 9.69597 80.9951 9.96497C81.1278 10.0345 81.2626 10.1207 81.2095 9.89882V9.28238C80.1734 9.03586 79.0707 8.94515 78.0297 9.21333C77.7284 9.29833 77.4348 9.42723 77.1901 9.62509V9.62502Z" fill="url(#paint2_linear_1_3404)"/>
<rect x="66.5" y="0.5" width="26" height="21" rx="4.5" stroke="#EEEEEE"/>
<rect x="100" y="1" width="25" height="20" rx="4" fill="#016FD0"/>
<path fill-rule="evenodd" clip-rule="evenodd" d="M104.757 7.875L102.5 14.117H105.202L105.537 13.1218H106.303L106.638 14.117H109.612V13.3574L109.877 14.117H111.416L111.681 13.3414V14.117H117.866L118.619 13.1476L119.323 14.117L122.5 14.125L120.236 11.0134L122.5 7.875H119.372L118.64 8.82647L117.958 7.875H111.229L110.651 9.48611L110.059 7.875H107.363V8.60875L107.063 7.875H104.757ZM113.994 8.76137H117.546L118.633 10.2279L119.754 8.76137H120.841L119.19 11.0125L120.841 13.2378H119.705L118.618 11.7542L117.491 13.2378H113.994V8.76137ZM114.871 10.5064V9.68877V9.68799H117.088L118.055 10.9956L117.045 12.3104H114.871V11.4178H116.809V10.5064H114.871ZM105.28 8.76147H106.597L108.094 12.9942V8.76147H109.537L110.694 11.7963L111.759 8.76147H113.195V13.2405H112.322L112.314 9.73077L111.041 13.2405H110.259L108.979 9.73077V13.2405H107.182L106.841 12.2364H105L104.66 13.2396H103.697L105.28 8.76147ZM105.314 11.3081L105.921 9.51929L106.527 11.3081H105.314Z" fill="white"/>
<defs>
<linearGradient id="paint0_linear_1_3404" x1="82.2494" y1="10.6998" x2="86.8253" y2="10.6998" gradientUnits="userSpaceOnUse">
<stop stop-color="#58B03A"/>
<stop offset="1" stop-color="#55B330"/>
</linearGradient>
<linearGradient id="paint1_linear_1_3404" x1="71.9244" y1="11.0443" x2="76.5197" y2="11.0443" gradientUnits="userSpaceOnUse">
<stop stop-color="#0F6EB6"/>
<stop offset="1" stop-color="#006DBA"/>
</linearGradient>
<linearGradient id="paint2_linear_1_3404" x1="77.145" y1="10.8076" x2="81.7241" y2="10.8076" gradientUnits="userSpaceOnUse">
<stop stop-color="#DE0D3D"/>
<stop offset="1" stop-color="#E30138"/>
</linearGradient>
</defs>
</svg>
