<svg width="16" height="16" viewBox="0 0 16 16" fill="none" xmlns="http://www.w3.org/2000/svg">
<path d="M2.66675 6.00004V5.25004H1.91675V6.00004H2.66675ZM2.66675 14.6667H1.91675V15.4167H2.66675V14.6667ZM13.3334 14.6667V15.4167H14.0834V14.6667H13.3334ZM13.3334 6.00004H14.0834V5.25004H13.3334V6.00004ZM5.75009 6.00004V4.33337H4.25008V6.00004H5.75009ZM10.2501 4.33337V6.00004H11.7501V4.33337H10.2501ZM8.00008 2.08337C9.24273 2.08337 10.2501 3.09073 10.2501 4.33337H11.7501C11.7501 2.26231 10.0712 0.583374 8.00008 0.583374V2.08337ZM5.75009 4.33337C5.75009 3.09073 6.75744 2.08337 8.00008 2.08337V0.583374C5.92902 0.583374 4.25008 2.26231 4.25008 4.33337H5.75009ZM1.91675 6.00004V14.6667H3.41675V6.00004H1.91675ZM2.66675 15.4167H13.3334V13.9167H2.66675V15.4167ZM12.5834 6.00004V14.6667H14.0834V6.00004H12.5834ZM13.3334 5.25004H2.66675V6.75004H13.3334V5.25004Z" fill="#191919"/>
<path d="M7.99756 10.3334H8.00355" stroke="#191919" stroke-width="2" stroke-linecap="square" stroke-linejoin="round"/>
</svg>
